<svg width="11" height="11" viewBox="0 0 11 11" fill="none" xmlns="http://www.w3.org/2000/svg">
<path d="M9.74164 0.25H4.91164C4.50164 0.25 4.16164 0.59 4.16164 1C4.16164 1.41 4.50164 1.75 4.91164 1.75H7.93164L0.211641 9.47C-0.0783594 9.76 -0.0783594 10.24 0.211641 10.53C0.361641 10.68 0.551641 10.75 0.741641 10.75C0.931641 10.75 1.12164 10.68 1.27164 10.53L8.99164 2.81V5.83C8.99164 6.24 9.33164 6.58 9.74164 6.58C10.1516 6.58 10.4916 6.24 10.4916 5.83V1C10.4916 0.59 10.1516 0.25 9.74164 0.25Z" fill="#6A7FC5"/>
</svg>
