<svg width="66" height="33" viewBox="0 0 66 33" fill="none" xmlns="http://www.w3.org/2000/svg">
<path d="M0.615234 16.5068C0.615234 8.12063 7.4136 1.32227 15.7998 1.32227H64.5879V31.6914H15.7998C7.4136 31.6914 0.615234 24.893 0.615234 16.5068Z" stroke="#1A2739"/>
<g clip-path="url(#clip0_2629_1563)">
<path opacity="0.5" d="M37.6152 16.5068C37.6152 20.0424 37.6152 21.8101 36.5169 22.9085C35.4185 24.0068 33.6508 24.0068 30.1152 24.0068C26.5797 24.0068 24.8119 24.0068 23.7136 22.9085C22.6152 21.8101 22.6152 20.0424 22.6152 16.5068C22.6152 12.9713 22.6152 11.2035 23.7136 10.1052C24.8119 9.00684 26.5797 9.00684 30.1152 9.00684C33.6508 9.00684 35.4185 9.00684 36.5169 10.1052C37.6152 11.2035 37.6152 12.9713 37.6152 16.5068Z" stroke="#61FFF4" stroke-width="1.5"/>
<path d="M32.7402 18.7568L30.4902 16.5068L32.7402 14.2568" stroke="#61FFF4" stroke-width="1.5" stroke-linecap="round" stroke-linejoin="round"/>
<path d="M29.7402 18.7568L27.4902 16.5068L29.7402 14.2568" stroke="#61FFF4" stroke-width="1.5" stroke-linecap="round" stroke-linejoin="round"/>
</g>
<defs>
<clipPath id="clip0_2629_1563">
<rect width="18" height="18" fill="white" transform="translate(39.1152 25.5068) rotate(-180)"/>
</clipPath>
</defs>
</svg>
