<svg width="48" height="34" viewBox="0 0 48 34" fill="none" xmlns="http://www.w3.org/2000/svg">
<path d="M14.5087 18.994H9.9151C8.65408 18.994 7.50676 19.5112 6.67273 20.3453C5.83957 21.1793 5.32146 22.3266 5.32146 23.5876C5.32146 24.8487 5.83957 25.996 6.67273 26.83C7.50676 27.664 8.65408 28.1813 9.9151 28.1813C11.1761 28.1813 12.3234 27.664 13.1575 26.83C13.9915 25.996 14.5087 24.8487 14.5087 23.5876V18.994ZM9.9151 14.1738H19.3298V23.5876C19.3298 26.1791 18.271 28.5336 16.5656 30.2381C14.8611 31.9435 12.5066 33.0023 9.9151 33.0023C7.32363 33.0023 4.9691 31.9435 3.2646 30.2381C1.55923 28.5336 0.500427 26.1791 0.500427 23.5876C0.500427 20.9962 1.55923 18.6425 3.2646 16.9371C4.9691 15.2318 7.32363 14.1738 9.9151 14.1738Z" fill="white"/>
<path d="M33.4921 14.1743H38.0858C39.3468 14.1743 40.4941 13.6562 41.3281 12.8231C42.1613 11.989 42.6794 10.8408 42.6794 9.58069C42.6794 8.32054 42.1613 7.17148 41.3281 6.33832C40.4941 5.5043 39.3468 4.98704 38.0858 4.98704C36.8247 4.98704 35.6774 5.5043 34.8434 6.33832C34.0094 7.17148 33.4921 8.31967 33.4921 9.58069V14.1743ZM38.0858 18.9945H28.6711V9.58069C28.6711 6.98922 29.7299 4.63469 31.4353 2.92932C33.1406 1.22395 35.4943 0.166016 38.0858 0.166016C40.6772 0.166016 43.0318 1.22482 44.7363 2.92932C46.4416 4.63469 47.4996 6.98922 47.4996 9.58069C47.4996 12.1722 46.4416 14.5258 44.7363 16.2312C43.0318 17.9366 40.6772 18.9945 38.0858 18.9945Z" fill="white"/>
<path d="M33.4938 14.1741H38.0875C39.3485 14.1741 40.4958 13.6559 41.3298 12.8228C41.7837 12.368 42.1439 11.8213 42.3782 11.2129H47.3589C47.017 13.1526 46.0771 14.8918 44.738 16.2309C43.0335 17.9363 40.6789 18.9942 38.0875 18.9942H31.2825V11.2129H33.4938V14.1741Z" fill="white"/>
<path d="M15.814 18.994H31.2804V14.1738H15.814V18.994Z" fill="white"/>
<path d="M31.2799 18.994H19.3276V14.1738H31.2799V18.994Z" fill="white"/>
<path d="M24.0011 28.2599C25.2829 28.2599 26.4502 27.734 27.2981 26.886C28.146 26.0381 28.672 24.8708 28.672 23.5881V9.58068C28.672 8.29796 28.146 7.13067 27.2981 6.28276C26.4502 5.43485 25.2829 4.90892 24.0002 4.90892C22.7175 4.90892 21.5511 5.43485 20.7032 6.28276C19.8553 7.13067 19.3293 8.29796 19.3293 9.58068V23.5881C19.3293 24.8708 19.8553 26.0381 20.7032 26.886C21.5511 27.734 22.7184 28.2599 24.0011 28.2599ZM33.493 9.58068V23.5881C33.493 26.2013 32.4255 28.5749 30.7063 30.2942C28.987 32.0134 26.6134 33.0809 24.0011 33.0809C21.3888 33.0809 19.0143 32.0134 17.295 30.2942C15.5758 28.5749 14.5083 26.2013 14.5083 23.5881V9.58068C14.5083 6.96751 15.5758 4.59389 17.295 2.87463C19.0143 1.15538 21.3879 0.0878906 24.0002 0.0878906C26.6125 0.0878906 28.987 1.15538 30.7063 2.87463C32.4255 4.59389 33.493 6.96751 33.493 9.58068Z" fill="white"/>
<path d="M22.5083 5.15639C21.8227 5.39072 21.2074 5.78039 20.7049 6.28289C19.857 7.1308 19.331 8.29809 19.331 9.58081V14.1745H14.51V9.58081C14.51 6.96764 15.5775 4.59402 17.2968 2.87476C18.6819 1.48964 20.4914 0.528035 22.5083 0.206055V5.15639Z" fill="white"/>
<path d="M14.7914 7.28081H19.9405C20.1497 6.91457 20.4066 6.57957 20.7034 6.28276C21.5513 5.43485 22.7186 4.90892 24.0004 4.90892C25.2823 4.90892 26.4504 5.43485 27.2983 6.28276C28.1463 7.13067 28.6722 8.29796 28.6722 9.58068C28.6722 7.16625 29.5913 4.95752 31.0962 3.28773C30.9703 3.14627 30.8401 3.00828 30.7065 2.87463C28.9872 1.15538 26.6136 0.0878906 24.0004 0.0878906C21.3873 0.0878906 19.0145 1.15538 17.2953 2.87463C16.0976 4.0723 15.2158 5.5876 14.7914 7.28081Z" fill="white"/>
<path d="M22.5081 27.8979C21.8225 27.6636 21.2071 27.2739 20.7046 26.7714C19.8567 25.9235 19.3299 24.7554 19.3299 23.4735V18.8799H14.5098V23.4735C14.5098 26.0867 15.5773 28.4603 17.2965 30.1796C18.6808 31.5647 20.4903 32.5263 22.5081 32.8474V27.8979Z" fill="white"/>
<path d="M0.651978 25.8321H5.80106C6.01022 26.1975 6.26711 26.5325 6.56392 26.8293C7.41183 27.6772 8.57912 28.2031 9.86097 28.2031C11.1428 28.2031 12.311 27.6772 13.1589 26.8293C14.0068 25.9814 14.5327 24.8141 14.5327 23.5322C14.5327 25.9466 15.4518 28.1545 16.9567 29.8243C16.8308 29.9658 16.7007 30.1038 16.567 30.2374C14.8478 31.9567 12.4741 33.0241 9.86097 33.0241C7.2478 33.0241 4.87418 31.9567 3.15492 30.2374C1.95726 29.0397 1.07637 27.5244 0.651978 25.8321Z" fill="white"/>
</svg>
