<svg width="127" height="23" viewBox="0 0 127 23" fill="none" xmlns="http://www.w3.org/2000/svg">
<path d="M41.1197 17.5L40.2529 15.0279H35.7742L34.8913 17.5H32.4352L36.7695 5.97422H39.4342L43.7363 17.5H41.1197ZM38.0376 8.63895L36.4645 13.0855H39.5787L38.0376 8.63895ZM52.1875 14.755C52.1875 16.5529 50.823 17.6605 48.383 17.6605C45.943 17.6605 44.5786 16.4887 44.402 14.5784H46.537C46.553 15.4613 47.3075 16.0232 48.4151 16.0232C49.282 16.0232 49.9401 15.7503 49.9401 15.1403C49.9401 14.5945 49.587 14.3697 48.7683 14.2092L47.2272 13.9203C45.6862 13.6474 44.7551 12.7966 44.7551 11.4642C44.7551 9.875 46.1196 8.76737 48.2546 8.76737C50.4057 8.76737 51.8825 9.90711 52.043 11.7532H49.908C49.8278 10.9184 49.2017 10.4047 48.2546 10.4047C47.4359 10.4047 46.8901 10.7097 46.8901 11.2555C46.8901 11.7692 47.2433 11.9779 48.0138 12.1224L49.6672 12.4274C51.3367 12.7484 52.1875 13.5189 52.1875 14.755ZM60.9506 14.755C60.9506 16.5529 59.5861 17.6605 57.1461 17.6605C54.7061 17.6605 53.3417 16.4887 53.1651 14.5784H55.3001C55.3161 15.4613 56.0706 16.0232 57.1782 16.0232C58.0451 16.0232 58.7032 15.7503 58.7032 15.1403C58.7032 14.5945 58.3501 14.3697 57.5314 14.2092L55.9903 13.9203C54.4493 13.6474 53.5182 12.7966 53.5182 11.4642C53.5182 9.875 54.8827 8.76737 57.0177 8.76737C59.1688 8.76737 60.6456 9.90711 60.8061 11.7532H58.6711C58.5909 10.9184 57.9648 10.4047 57.0177 10.4047C56.199 10.4047 55.6532 10.7097 55.6532 11.2555C55.6532 11.7692 56.0064 11.9779 56.7769 12.1224L58.4303 12.4274C60.0998 12.7484 60.9506 13.5189 60.9506 14.755ZM66.1982 17.6445C63.6298 17.6445 61.9121 15.8626 61.9121 13.1818C61.9121 10.6295 63.694 8.76737 66.1661 8.76737C68.879 8.76737 70.6769 10.9666 70.2755 13.7597H64.1916C64.3361 15.1563 65.0103 15.9268 66.15 15.9268C67.1292 15.9268 67.7874 15.4453 68.0442 14.5945H70.2595C69.7779 16.5368 68.285 17.6445 66.1982 17.6445ZM66.1179 10.4047C65.0745 10.4047 64.4163 11.079 64.2237 12.3471H67.9158C67.8516 11.1592 67.1774 10.4047 66.1179 10.4047ZM77.0368 15.3329V17.2753C76.491 17.5482 75.9774 17.6605 75.3192 17.6605C73.5534 17.6605 72.4458 16.6492 72.4458 14.7229V10.8382H70.7121V8.9279H72.4458V6.39158H74.661V8.9279H77.1171V10.8382H74.661V14.2092C74.661 15.2045 75.1105 15.6058 75.9132 15.6058C76.3305 15.6058 76.7158 15.5095 77.0368 15.3329ZM87.1317 17.7408C83.889 17.7408 81.3527 15.1082 81.3527 11.7211C81.3527 8.35 83.889 5.73343 87.1317 5.73343C90.1656 5.73343 92.5414 7.75606 92.9427 10.7097H90.3583C90.0854 9.05632 88.8012 7.91658 87.1638 7.91658C85.1893 7.91658 83.8569 9.47369 83.8569 11.7211C83.8569 13.9845 85.1893 15.5576 87.1638 15.5576C88.8012 15.5576 90.0693 14.4018 90.3583 12.7484H92.9427C92.5414 15.7342 90.1656 17.7408 87.1317 17.7408ZM96.6851 12.8287V17.5H94.4538V5.97422H96.6851V10.0516C97.2791 9.265 98.0175 8.76737 99.1412 8.76737C100.859 8.76737 102.047 9.89106 102.047 11.9618V17.5H99.8314V12.7163C99.8314 11.4482 99.3338 10.7418 98.3225 10.7418C97.4396 10.7418 96.6851 11.4482 96.6851 12.8287ZM109.074 17.5V16.4405C108.512 17.2432 107.661 17.6605 106.49 17.6605C104.708 17.6605 103.52 16.6171 103.52 15.0118C103.52 13.3424 104.868 12.4434 107.373 12.4434C107.854 12.4434 108.271 12.4755 108.801 12.5397V12.0261C108.801 11.0629 108.255 10.5011 107.324 10.5011C106.361 10.5011 105.783 11.0629 105.703 12.0261H103.696C103.825 10.0516 105.254 8.76737 107.324 8.76737C109.572 8.76737 110.888 10.0034 110.888 12.1063V17.5H109.074ZM105.623 14.9476C105.623 15.67 106.136 16.1195 106.971 16.1195C108.111 16.1195 108.801 15.4934 108.801 14.4982V13.8882C108.271 13.8079 107.902 13.7758 107.517 13.7758C106.249 13.7758 105.623 14.1771 105.623 14.9476ZM115.395 6.93737C115.395 7.69185 114.785 8.25369 113.902 8.25369C113.036 8.25369 112.426 7.69185 112.426 6.93737C112.426 6.15079 113.036 5.58895 113.902 5.58895C114.785 5.58895 115.395 6.15079 115.395 6.93737ZM115.042 17.5H112.811V8.9279H115.042V17.5ZM119.259 12.8287V17.5H117.028V8.9279H119.083V10.1479C119.709 9.29711 120.591 8.76737 121.715 8.76737C123.433 8.76737 124.621 9.89106 124.621 11.9618V17.5H122.405V12.7163C122.405 11.4482 121.908 10.7418 120.896 10.7418C120.014 10.7418 119.259 11.4482 119.259 12.8287Z" fill="white"/>
<path d="M8.21412 13.001H5.52052C4.78109 13.001 4.10833 13.3043 3.61928 13.7933C3.13074 14.2824 2.82693 14.9551 2.82693 15.6946C2.82693 16.434 3.13074 17.1068 3.61928 17.5958C4.10833 18.0849 4.78109 18.3882 5.52052 18.3882C6.25995 18.3882 6.93271 18.0849 7.42176 17.5958C7.91081 17.1068 8.21412 16.434 8.21412 15.6946V13.001ZM5.52052 10.1746H11.041V15.6946C11.041 17.2141 10.4202 18.5948 9.4202 19.5943C8.42073 20.5942 7.04009 21.2151 5.52052 21.2151C4.00095 21.2151 2.62031 20.5942 1.62084 19.5943C0.620855 18.5948 0 17.2141 0 15.6946C0 14.175 0.620855 12.7949 1.62084 11.7949C2.62031 10.7949 4.00095 10.1746 5.52052 10.1746Z" fill="white"/>
<path d="M19.3465 10.1746H22.0401C22.7795 10.1746 23.4522 9.87075 23.9413 9.38221C24.4298 8.89316 24.7337 8.21989 24.7337 7.48097C24.7337 6.74205 24.4298 6.06827 23.9413 5.57973C23.4522 5.09068 22.7795 4.78738 22.0401 4.78738C21.3006 4.78738 20.6279 5.09068 20.1388 5.57973C19.6498 6.06827 19.3465 6.74154 19.3465 7.48097V10.1746ZM22.0401 13.001H16.5195V7.48097C16.5195 5.9614 17.1404 4.58076 18.1404 3.58078C19.1404 2.58079 20.5205 1.96045 22.0401 1.96045C23.5596 1.96045 24.9403 2.5813 25.9397 3.58078C26.9397 4.58076 27.5601 5.9614 27.5601 7.48097C27.5601 9.00054 26.9397 10.3807 25.9397 11.3807C24.9403 12.3806 23.5596 13.001 22.0401 13.001Z" fill="white"/>
<path d="M19.3455 10.1746H22.0391C22.7785 10.1746 23.4513 9.87078 23.9403 9.38224C24.2065 9.11557 24.4177 8.79497 24.5551 8.43823H27.4756C27.2751 9.57562 26.724 10.5954 25.9388 11.3807C24.9393 12.3807 23.5587 13.001 22.0391 13.001H18.0488V8.43823H19.3455V10.1746Z" fill="white"/>
<path d="M8.98047 13.001H18.0495V10.1746H8.98047V13.001Z" fill="white"/>
<path d="M18.0496 13.001H11.041V10.1746H18.0496V13.001Z" fill="white"/>
<path d="M13.7812 18.4339C14.5328 18.4339 15.2173 18.1255 15.7145 17.6283C16.2117 17.1311 16.5201 16.4466 16.5201 15.6945V7.48087C16.5201 6.72872 16.2117 6.04426 15.7145 5.54706C15.2173 5.04987 14.5328 4.74148 13.7807 4.74148C13.0285 4.74148 12.3445 5.04987 11.8474 5.54706C11.3502 6.04426 11.0418 6.72872 11.0418 7.48087V15.6945C11.0418 16.4466 11.3502 17.1311 11.8474 17.6283C12.3445 18.1255 13.029 18.4339 13.7812 18.4339ZM19.347 7.48087V15.6945C19.347 17.2268 18.721 18.6186 17.7129 19.6267C16.7048 20.6349 15.3129 21.2608 13.7812 21.2608C12.2494 21.2608 10.857 20.6349 9.84892 19.6267C8.84079 18.6186 8.21484 17.2268 8.21484 15.6945V7.48087C8.21484 5.94858 8.84079 4.55675 9.84892 3.54862C10.857 2.5405 12.2489 1.91455 13.7807 1.91455C15.3124 1.91455 16.7048 2.5405 17.7129 3.54862C18.721 4.55675 19.347 5.94858 19.347 7.48087Z" fill="white"/>
<path d="M12.9048 4.88664C12.5028 5.02404 12.142 5.25253 11.8474 5.54719C11.3502 6.04438 11.0418 6.72885 11.0418 7.481V10.1746H8.21484V7.481C8.21484 5.94871 8.84079 4.55687 9.84892 3.54875C10.6611 2.73655 11.7222 2.17269 12.9048 1.98389V4.88664Z" fill="white"/>
<path d="M8.38086 6.13229H11.4002C11.5228 5.91754 11.6734 5.72111 11.8475 5.54706C12.3447 5.04987 13.0291 4.74148 13.7808 4.74148C14.5324 4.74148 15.2174 5.04987 15.7146 5.54706C16.2118 6.04426 16.5202 6.72872 16.5202 7.48087C16.5202 6.06512 17.0591 4.76997 17.9415 3.79086C17.8677 3.70791 17.7914 3.62699 17.713 3.54862C16.7049 2.5405 15.3131 1.91455 13.7808 1.91455C12.2485 1.91455 10.8572 2.5405 9.84903 3.54862C9.14675 4.2509 8.62971 5.13944 8.38086 6.13229Z" fill="white"/>
<path d="M12.9048 18.2223C12.5028 18.0849 12.142 17.8564 11.8474 17.5617C11.3502 17.0645 11.0413 16.3796 11.0413 15.6279V12.9343H8.21484V15.6279C8.21484 17.1602 8.84079 18.5521 9.84892 19.5602C10.6606 20.3724 11.7217 20.9362 12.9048 21.1245V18.2223Z" fill="white"/>
<path d="M0.0878906 17.01H3.10718C3.22982 17.2242 3.38046 17.4206 3.5545 17.5947C4.05169 18.0919 4.73616 18.4003 5.4878 18.4003C6.23945 18.4003 6.92442 18.0919 7.42161 17.5947C7.91881 17.0975 8.2272 16.413 8.2272 15.6614C8.2272 17.0771 8.76612 18.3718 9.64855 19.3509C9.57476 19.4338 9.49843 19.5148 9.42006 19.5931C8.41193 20.6012 7.02009 21.2272 5.4878 21.2272C3.95551 21.2272 2.56368 20.6012 1.55555 19.5931C0.853273 18.8908 0.336742 18.0023 0.0878906 17.01Z" fill="white"/>
</svg>
