<svg width="1454" height="316" viewBox="0 0 1454 316" fill="none" xmlns="http://www.w3.org/2000/svg">
<path d="M62.0598 277.28C46.7336 277.28 33.6704 272.086 22.8701 261.697C12.1727 251.308 6.82393 237.525 6.82393 220.347C6.82393 203.272 12.2755 189.489 23.1787 178.997C34.0818 168.506 46.9908 163.26 61.9055 163.26C75.0716 163.26 85.8719 166.603 94.3064 173.289C102.844 179.975 108.45 188.461 111.124 198.747L93.6892 204.61C91.9406 197.512 88.3919 191.752 83.0432 187.329C77.6945 182.906 70.6486 180.695 61.9055 180.695C52.1338 180.695 43.6478 184.192 36.4476 191.186C29.3503 198.078 25.8016 207.798 25.8016 220.347C25.8016 232.587 29.3503 242.205 36.4476 249.199C43.545 256.091 52.0823 259.537 62.0598 259.537C70.5971 259.537 77.6431 257.222 83.1975 252.594C88.7519 247.965 92.5578 242.256 94.615 235.468L111.587 241.022C108.913 251.205 103.255 259.794 94.615 266.788C86.0776 273.783 75.2258 277.28 62.0598 277.28ZM171.003 199.364V217.57C168.946 217.261 166.991 217.107 165.14 217.107C151.665 217.107 144.928 224.462 144.928 239.171V274.966H127.03V199.827H144.465V211.861C146.214 207.85 149.042 204.712 152.951 202.45C156.86 200.084 161.283 198.901 166.22 198.901C167.866 198.901 169.46 199.055 171.003 199.364ZM203.242 254.908C207.357 259.125 212.345 261.234 218.209 261.234C224.072 261.234 229.009 259.125 233.02 254.908C237.135 250.691 239.192 244.828 239.192 237.319C239.192 229.913 237.135 224.153 233.02 220.039C229.009 215.821 224.072 213.713 218.209 213.713C212.345 213.713 207.357 215.821 203.242 220.039C199.231 224.153 197.225 229.913 197.225 237.319C197.225 244.725 199.231 250.588 203.242 254.908ZM218.209 197.512C229.523 197.512 238.832 201.267 246.135 208.775C253.541 216.284 257.244 225.799 257.244 237.319C257.244 248.839 253.541 258.405 246.135 266.017C238.832 273.526 229.523 277.28 218.209 277.28C206.997 277.28 197.688 273.526 190.282 266.017C182.979 258.405 179.327 248.839 179.327 237.319C179.327 225.799 182.979 216.284 190.282 208.775C197.688 201.267 206.997 197.512 218.209 197.512ZM267.906 254.6L283.489 250.279C283.797 253.88 285.289 256.914 287.963 259.383C290.638 261.851 294.238 263.085 298.764 263.085C302.261 263.085 304.987 262.263 306.941 260.617C308.998 258.971 310.027 256.914 310.027 254.445C310.027 250.125 307.095 247.348 301.232 246.114L290.123 243.645C283.643 242.205 278.654 239.531 275.157 235.622C271.66 231.713 269.911 227.084 269.911 221.736C269.911 215.153 272.586 209.495 277.934 204.764C283.283 199.929 289.815 197.512 297.529 197.512C302.467 197.512 306.838 198.232 310.644 199.672C314.45 201.112 317.381 203.015 319.438 205.381C321.598 207.644 323.244 209.855 324.376 212.015C325.507 214.176 326.227 216.336 326.536 218.496L311.415 222.816C311.004 219.936 309.667 217.364 307.404 215.101C305.244 212.736 301.952 211.553 297.529 211.553C294.443 211.553 291.872 212.427 289.815 214.176C287.758 215.821 286.729 217.827 286.729 220.193C286.729 224.41 289.249 227.033 294.289 228.062L305.707 230.376C312.701 231.919 318.05 234.696 321.753 238.708C325.456 242.719 327.307 247.554 327.307 253.211C327.307 259.485 324.787 265.091 319.747 270.029C314.81 274.863 307.867 277.28 298.918 277.28C293.775 277.28 289.146 276.509 285.032 274.966C281.02 273.423 277.832 271.469 275.466 269.103C273.203 266.634 271.403 264.217 270.066 261.851C268.831 259.383 268.111 256.965 267.906 254.6ZM338.421 254.6L354.004 250.279C354.313 253.88 355.804 256.914 358.479 259.383C361.153 261.851 364.753 263.085 369.279 263.085C372.776 263.085 375.502 262.263 377.456 260.617C379.514 258.971 380.542 256.914 380.542 254.445C380.542 250.125 377.611 247.348 371.748 246.114L360.639 243.645C354.159 242.205 349.17 239.531 345.673 235.622C342.175 231.713 340.427 227.084 340.427 221.736C340.427 215.153 343.101 209.495 348.45 204.764C353.798 199.929 360.33 197.512 368.045 197.512C372.982 197.512 377.353 198.232 381.159 199.672C384.965 201.112 387.897 203.015 389.954 205.381C392.114 207.644 393.76 209.855 394.891 212.015C396.023 214.176 396.743 216.336 397.051 218.496L381.931 222.816C381.519 219.936 380.182 217.364 377.919 215.101C375.759 212.736 372.468 211.553 368.045 211.553C364.959 211.553 362.387 212.427 360.33 214.176C358.273 215.821 357.244 217.827 357.244 220.193C357.244 224.41 359.764 227.033 364.805 228.062L376.222 230.376C383.216 231.919 388.565 234.696 392.268 238.708C395.971 242.719 397.823 247.554 397.823 253.211C397.823 259.485 395.303 265.091 390.262 270.029C385.325 274.863 378.382 277.28 369.433 277.28C364.29 277.28 359.662 276.509 355.547 274.966C351.536 273.423 348.347 271.469 345.981 269.103C343.718 266.634 341.918 264.217 340.581 261.851C339.347 259.383 338.627 256.965 338.421 254.6ZM503.986 277.28C488.66 277.28 475.597 272.086 464.797 261.697C454.099 251.308 448.75 237.525 448.75 220.347C448.75 203.272 454.202 189.489 465.105 178.997C476.008 168.506 488.917 163.26 503.832 163.26C516.998 163.26 527.798 166.603 536.233 173.289C544.77 179.975 550.376 188.461 553.05 198.747L535.616 204.61C533.867 197.512 530.318 191.752 524.97 187.329C519.621 182.906 512.575 180.695 503.832 180.695C494.06 180.695 485.574 184.192 478.374 191.186C471.277 198.078 467.728 207.798 467.728 220.347C467.728 232.587 471.277 242.205 478.374 249.199C485.471 256.091 494.009 259.537 503.986 259.537C512.524 259.537 519.569 257.222 525.124 252.594C530.678 247.965 534.484 242.256 536.541 235.468L553.513 241.022C550.839 251.205 545.182 259.794 536.541 266.788C528.004 273.783 517.152 277.28 503.986 277.28ZM587.156 230.839V274.966H569.258V163.26H587.156V207.078C591.99 200.804 599.139 197.667 608.602 197.667C617.448 197.667 624.237 200.444 628.968 205.998C633.7 211.553 636.066 218.701 636.066 227.444V274.966H618.168V230.53C618.168 225.49 616.934 221.479 614.465 218.496C611.996 215.41 608.088 213.867 602.739 213.867C598.007 213.867 594.253 215.461 591.476 218.65C588.801 221.839 587.361 225.902 587.156 230.839ZM653.226 254.6C653.226 248.222 655.283 243.131 659.397 239.325C663.614 235.416 669.117 232.948 675.906 231.919L695.192 228.987C698.895 228.473 700.747 226.673 700.747 223.587C700.747 220.193 699.564 217.467 697.198 215.41C694.832 213.25 691.284 212.17 686.552 212.17C682.026 212.17 678.426 213.456 675.752 216.027C673.078 218.496 671.535 221.736 671.123 225.747L654.768 222.044C655.489 215.256 658.729 209.495 664.489 204.764C670.249 199.929 677.552 197.512 686.398 197.512C697.301 197.512 705.324 200.135 710.467 205.381C715.713 210.627 718.336 217.364 718.336 225.593V262.931C718.336 267.868 718.645 271.88 719.262 274.966H702.598C702.084 273.423 701.827 270.234 701.827 265.4C696.89 273.32 689.175 277.28 678.683 277.28C671.072 277.28 664.9 275.069 660.169 270.646C655.54 266.12 653.226 260.771 653.226 254.6ZM682.078 263.24C687.632 263.24 692.107 261.748 695.501 258.765C698.998 255.68 700.747 250.691 700.747 243.799V240.405L681.152 243.336C674.466 244.468 671.123 247.862 671.123 253.52C671.123 256.194 672.1 258.508 674.055 260.463C676.009 262.314 678.683 263.24 682.078 263.24ZM757.715 274.966H739.972V199.827H757.715V274.966ZM740.589 181.62C738.326 179.357 737.194 176.632 737.194 173.443C737.194 170.254 738.326 167.529 740.589 165.266C742.852 162.9 745.577 161.717 748.766 161.717C752.058 161.717 754.835 162.848 757.098 165.111C759.361 167.374 760.492 170.151 760.492 173.443C760.492 176.632 759.361 179.357 757.098 181.62C754.835 183.883 752.058 185.015 748.766 185.015C745.577 185.015 742.852 183.883 740.589 181.62ZM798.702 231.61V274.966H780.804V199.827H798.239V209.855C800.605 205.741 803.742 202.707 807.651 200.752C811.662 198.695 815.931 197.667 820.457 197.667C829.303 197.667 836.04 200.444 840.669 205.998C845.297 211.553 847.612 218.701 847.612 227.444V274.966H829.714V230.53C829.714 225.49 828.48 221.479 826.011 218.496C823.543 215.41 819.634 213.867 814.285 213.867C809.348 213.867 805.491 215.564 802.713 218.959C800.039 222.25 798.702 226.467 798.702 231.61ZM925.106 274.966H907.672V163.26H925.261V209.084C927.112 205.895 930.146 203.221 934.364 201.061C938.581 198.901 943.415 197.821 948.867 197.821C959.77 197.821 968.256 201.524 974.325 208.93C980.496 216.233 983.582 225.593 983.582 237.01C983.582 248.634 980.342 258.2 973.862 265.708C967.485 273.114 958.947 276.817 948.25 276.817C937.552 276.817 929.838 272.857 925.106 264.937V274.966ZM959.822 254.6C963.627 250.279 965.53 244.468 965.53 237.165C965.53 229.862 963.679 224.153 959.976 220.039C956.273 215.821 951.387 213.713 945.318 213.713C939.455 213.713 934.621 215.821 930.815 220.039C927.009 224.153 925.106 229.862 925.106 237.165C925.106 244.365 927.009 250.125 930.815 254.445C934.621 258.765 939.455 260.925 945.318 260.925C951.284 260.925 956.119 258.817 959.822 254.6ZM1044.76 199.364V217.57C1042.7 217.261 1040.75 217.107 1038.9 217.107C1025.42 217.107 1018.69 224.462 1018.69 239.171V274.966H1000.79V199.827H1018.22V211.861C1019.97 207.85 1022.8 204.712 1026.71 202.45C1030.62 200.084 1035.04 198.901 1039.98 198.901C1041.62 198.901 1043.22 199.055 1044.76 199.364ZM1077.44 274.966H1059.7V199.827H1077.44V274.966ZM1060.32 181.62C1058.06 179.357 1056.92 176.632 1056.92 173.443C1056.92 170.254 1058.06 167.529 1060.32 165.266C1062.58 162.9 1065.31 161.717 1068.5 161.717C1071.79 161.717 1074.56 162.848 1076.83 165.111C1079.09 167.374 1080.22 170.151 1080.22 173.443C1080.22 176.632 1079.09 179.357 1076.83 181.62C1074.56 183.883 1071.79 185.015 1068.5 185.015C1065.31 185.015 1062.58 183.883 1060.32 181.62ZM1112.57 237.165C1112.57 244.365 1114.42 250.177 1118.12 254.6C1121.83 258.92 1126.71 261.08 1132.78 261.08C1138.64 261.08 1143.43 258.868 1147.13 254.445C1150.83 250.022 1152.68 244.211 1152.68 237.01C1152.68 229.913 1150.88 224.256 1147.28 220.039C1143.68 215.821 1138.9 213.713 1132.93 213.713C1126.97 213.713 1122.08 215.873 1118.28 220.193C1114.47 224.41 1112.57 230.067 1112.57 237.165ZM1169.96 163.26V261.234C1169.96 266.274 1170.22 270.851 1170.74 274.966H1153.61C1153.1 272.086 1152.84 268.846 1152.84 265.246C1150.99 268.64 1148.11 271.417 1144.2 273.577C1140.29 275.737 1135.82 276.817 1130.77 276.817C1120.08 276.817 1111.39 273.063 1104.7 265.554C1098.01 258.045 1094.67 248.582 1094.67 237.165C1094.67 226.159 1098.01 216.85 1104.7 209.238C1111.49 201.627 1120.08 197.821 1130.47 197.821C1136.43 197.821 1141.22 198.901 1144.82 201.061C1148.52 203.221 1151.09 205.741 1152.53 208.621V163.26H1169.96ZM1187.95 279.132L1204.46 274.812C1205.08 279.543 1207.08 283.4 1210.48 286.383C1213.97 289.469 1218.24 291.012 1223.28 291.012C1237.48 291.012 1244.57 283.503 1244.57 268.486V260.617C1242.82 263.806 1240.05 266.428 1236.24 268.486C1232.44 270.543 1227.96 271.571 1222.82 271.571C1212.74 271.571 1204.41 268.126 1197.82 261.234C1191.34 254.342 1188.1 245.599 1188.1 235.005C1188.1 224.822 1191.34 216.181 1197.82 209.084C1204.3 201.987 1212.64 198.438 1222.82 198.438C1233.82 198.438 1241.23 202.089 1245.04 209.393V199.827H1262.32V267.868C1262.32 278.977 1259.18 288.183 1252.91 295.486C1246.63 302.892 1236.91 306.595 1223.74 306.595C1214.08 306.595 1205.95 303.972 1199.37 298.726C1192.78 293.481 1188.98 286.949 1187.95 279.132ZM1225.75 256.297C1231.51 256.297 1236.14 254.394 1239.64 250.588C1243.24 246.679 1245.04 241.485 1245.04 235.005C1245.04 228.627 1243.24 223.536 1239.64 219.73C1236.04 215.821 1231.41 213.867 1225.75 213.867C1219.99 213.867 1215.26 215.821 1211.56 219.73C1207.96 223.536 1206.16 228.627 1206.16 235.005C1206.16 241.485 1207.96 246.679 1211.56 250.588C1215.16 254.394 1219.89 256.297 1225.75 256.297ZM1296.7 229.142H1333.58C1333.37 224.41 1331.68 220.45 1328.49 217.261C1325.4 214.073 1320.93 212.478 1315.06 212.478C1309.71 212.478 1305.39 214.176 1302.1 217.57C1298.81 220.861 1297.01 224.719 1296.7 229.142ZM1335.58 248.737L1350.7 253.52C1348.54 260.411 1344.48 266.12 1338.52 270.646C1332.65 275.069 1325.4 277.28 1316.76 277.28C1306.06 277.28 1296.96 273.629 1289.45 266.326C1282.05 259.023 1278.34 249.251 1278.34 237.01C1278.34 225.49 1281.94 216.027 1289.14 208.621C1296.45 201.215 1305.03 197.512 1314.91 197.512C1326.43 197.512 1335.43 201.061 1341.91 208.158C1348.39 215.153 1351.63 224.616 1351.63 236.548C1351.63 239.736 1351.48 241.639 1351.17 242.256H1296.24C1296.45 247.914 1298.5 252.594 1302.41 256.297C1306.42 260 1311.21 261.851 1316.76 261.851C1326.43 261.851 1332.7 257.48 1335.58 248.737Z" fill="#0A111A"/>
<path d="M730.615 148.955L720.656 122.497H676.063L666.253 148.955H647.375L688.4 43.5679H709.061L750.087 148.955H730.615ZM698.359 62.8914L682.306 105.998H714.413L698.359 62.8914ZM756.32 129.334L771.333 125.172C771.63 128.641 773.067 131.564 775.644 133.942C778.22 136.321 781.689 137.51 786.049 137.51C789.418 137.51 792.044 136.717 793.927 135.131C795.909 133.546 796.9 131.564 796.9 129.186C796.9 125.024 794.075 122.348 788.427 121.159L777.725 118.781C771.482 117.393 766.676 114.817 763.307 111.051C759.937 107.286 758.253 102.827 758.253 97.6736C758.253 91.3316 760.829 85.8814 765.982 81.323C771.135 76.6656 777.427 74.3368 784.86 74.3368C789.616 74.3368 793.828 75.0305 797.494 76.4178C801.161 77.8051 803.985 79.6384 805.967 81.9176C808.048 84.0976 809.633 86.2282 810.723 88.3092C811.813 90.3902 812.507 92.4711 812.804 94.5521L798.237 98.7141C797.841 95.9395 796.553 93.4621 794.373 91.282C792.292 89.0028 789.121 87.8632 784.86 87.8632C781.887 87.8632 779.409 88.7055 777.427 90.3902C775.446 91.9757 774.455 93.908 774.455 96.1872C774.455 100.25 776.882 102.777 781.738 103.768L792.738 105.998C799.476 107.484 804.629 110.16 808.196 114.024C811.764 117.889 813.547 122.546 813.547 127.997C813.547 134.041 811.12 139.442 806.264 144.199C801.507 148.856 794.819 151.185 786.197 151.185C781.243 151.185 776.783 150.441 772.82 148.955C768.955 147.469 765.883 145.586 763.604 143.307C761.424 140.928 759.69 138.6 758.401 136.321C757.212 133.942 756.519 131.614 756.32 129.334ZM824.254 129.334L839.267 125.172C839.564 128.641 841.001 131.564 843.578 133.942C846.154 136.321 849.623 137.51 853.983 137.51C857.352 137.51 859.978 136.717 861.861 135.131C863.843 133.546 864.834 131.564 864.834 129.186C864.834 125.024 862.009 122.348 856.361 121.159L845.659 118.781C839.416 117.393 834.61 114.817 831.241 111.051C827.871 107.286 826.187 102.827 826.187 97.6736C826.187 91.3316 828.763 85.8814 833.916 81.323C839.069 76.6656 845.361 74.3368 852.794 74.3368C857.55 74.3368 861.762 75.0305 865.428 76.4178C869.095 77.8051 871.919 79.6384 873.901 81.9176C875.982 84.0976 877.567 86.2282 878.657 88.3092C879.747 90.3902 880.441 92.4711 880.738 94.5521L866.171 98.7141C865.775 95.9395 864.487 93.4621 862.307 91.282C860.226 89.0028 857.055 87.8632 852.794 87.8632C849.821 87.8632 847.343 88.7055 845.361 90.3902C843.38 91.9757 842.389 93.908 842.389 96.1872C842.389 100.25 844.816 102.777 849.672 103.768L860.672 105.998C867.41 107.484 872.563 110.16 876.13 114.024C879.698 117.889 881.481 122.546 881.481 127.997C881.481 134.041 879.054 139.442 874.198 144.199C869.441 148.856 862.753 151.185 854.131 151.185C849.177 151.185 844.717 150.441 840.754 148.955C836.889 147.469 833.817 145.586 831.538 143.307C829.358 140.928 827.624 138.6 826.335 136.321C825.146 133.942 824.453 131.614 824.254 129.334ZM910.184 104.808H945.71C945.512 100.25 943.877 96.4349 940.805 93.363C937.832 90.2911 933.521 88.7551 927.873 88.7551C922.72 88.7551 918.558 90.3902 915.387 93.6603C912.216 96.8313 910.482 100.547 910.184 104.808ZM947.642 123.686L962.209 128.294C960.128 134.933 956.214 140.433 950.466 144.793C944.818 149.054 937.832 151.185 929.508 151.185C919.202 151.185 910.432 147.667 903.198 140.631C896.063 133.595 892.496 124.181 892.496 112.389C892.496 101.291 895.964 92.1739 902.901 85.0391C909.937 77.9042 918.211 74.3368 927.724 74.3368C938.823 74.3368 947.494 77.7556 953.737 84.5931C959.98 91.3316 963.101 100.448 963.101 111.943C963.101 115.015 962.952 116.848 962.655 117.443H909.739C909.937 122.893 911.919 127.402 915.684 130.969C919.549 134.537 924.157 136.321 929.508 136.321C938.823 136.321 944.868 132.109 947.642 123.686ZM1001.43 54.4188V76.5665H1016.44V91.8766H1001.43V125.47C1001.43 128.641 1002.17 130.969 1003.66 132.456C1005.14 133.843 1007.47 134.537 1010.64 134.537C1012.63 134.537 1014.61 134.339 1016.59 133.942V148.212C1014.01 149.302 1010.5 149.847 1006.04 149.847C999.298 149.847 993.996 147.964 990.132 144.199C986.267 140.334 984.335 135.032 984.335 128.294V91.8766H970.957V76.5665H974.673C978.339 76.5665 981.114 75.526 982.997 73.445C984.88 71.364 985.821 68.6389 985.821 65.2697V54.4188H1001.43ZM1121.57 41.3383C1133.56 41.3383 1143.18 44.4598 1150.41 50.7028C1157.64 56.9457 1162.25 64.9724 1164.23 74.7828L1150.41 78.7961C1148.92 71.7604 1145.55 66.0129 1140.3 61.5536C1135.05 56.9953 1128.31 54.7161 1120.09 54.7161C1107.7 54.7161 1097.84 59.5222 1090.51 69.1344C1083.27 78.6474 1079.66 90.0433 1079.66 103.322C1079.66 114.024 1082.43 122.497 1087.98 128.74C1093.53 134.884 1101.11 137.956 1110.72 137.956C1126.28 137.956 1137.58 130.028 1144.61 114.173L1157.4 119.375C1153.04 129.384 1146.74 137.212 1138.52 142.861C1130.29 148.41 1120.58 151.185 1109.38 151.185C1096.3 151.185 1085.6 146.825 1077.28 138.104C1068.95 129.285 1064.79 117.988 1064.79 104.214C1064.79 94.3044 1066.43 85.2868 1069.7 77.161C1072.97 68.9362 1077.28 62.2968 1082.63 57.243C1088.08 52.1892 1094.12 48.2749 1100.76 45.5003C1107.5 42.7256 1114.44 41.3383 1121.57 41.3383ZM1226.49 148.955H1212.52L1221.74 105.7C1222.13 104.016 1222.33 102.182 1222.33 100.201C1222.33 96.2367 1221.19 93.1648 1218.91 90.9847C1216.73 88.8046 1213.51 87.7146 1209.25 87.7146C1204 87.7146 1199.64 89.6469 1196.17 93.5116C1192.8 97.2772 1190.52 101.885 1189.33 107.335L1180.42 148.955H1166.44L1189.33 41.3383H1203.31L1194.39 83.404C1199.14 78.0529 1205.98 75.3773 1214.9 75.3773C1221.54 75.3773 1226.84 77.3097 1230.81 81.1744C1234.87 85.039 1236.9 90.2415 1236.9 96.7818C1236.9 98.6646 1236.65 100.944 1236.16 103.619L1226.49 148.955ZM1287.69 87.4173C1280.36 87.4173 1274.51 90.6874 1270.15 97.2277C1265.89 103.768 1263.76 111.002 1263.76 118.929C1263.76 124.776 1265.19 129.483 1268.07 133.05C1270.94 136.618 1275.15 138.402 1280.7 138.402C1287.54 138.402 1293.19 135.28 1297.65 129.037C1302.11 122.794 1304.34 115.065 1304.34 105.849C1304.34 100.399 1302.95 95.989 1300.17 92.6198C1297.4 89.1515 1293.24 87.4173 1287.69 87.4173ZM1311.17 77.4583H1325L1313.85 130.375C1312.76 135.33 1312.21 140.73 1312.21 146.577C1312.21 147.37 1312.26 148.162 1312.36 148.955H1299.13C1298.94 147.964 1298.84 146.577 1298.84 144.793C1298.84 143.009 1298.94 141.374 1299.13 139.888C1293.29 146.924 1286.2 150.441 1277.88 150.441C1268.96 150.441 1262.02 147.518 1257.07 141.672C1252.11 135.726 1249.64 128.195 1249.64 119.078C1249.64 107.187 1253.15 96.9304 1260.19 88.3092C1267.23 79.6879 1276.14 75.3773 1286.95 75.3773C1292.49 75.3773 1297.15 76.4674 1300.92 78.6474C1304.68 80.7284 1307.46 83.3544 1309.24 86.5255L1311.17 77.4583ZM1351.07 51C1351.07 47.9281 1352.21 45.3517 1354.49 43.2707C1356.76 41.0906 1359.29 40.0005 1362.07 40.0005C1364.74 40.0005 1366.92 40.8924 1368.61 42.6761C1370.29 44.3607 1371.13 46.4417 1371.13 48.9191C1371.13 51.8919 1369.99 54.4684 1367.71 56.6484C1365.44 58.8285 1362.91 59.9186 1360.13 59.9186C1357.46 59.9186 1355.28 59.0763 1353.59 57.3916C1351.91 55.6079 1351.07 53.4774 1351.07 51ZM1347.2 148.955H1333.23L1348.54 77.4583H1362.51L1347.2 148.955ZM1431.46 148.955H1417.49L1426.7 105.7C1427.1 103.718 1427.3 101.885 1427.3 100.201C1427.3 96.2367 1426.16 93.1648 1423.88 90.9847C1421.7 88.8046 1418.48 87.7146 1414.22 87.7146C1408.96 87.7146 1404.6 89.6469 1401.13 93.5116C1397.77 97.2772 1395.49 101.885 1394.3 107.335L1385.38 148.955H1371.41L1383.89 90.0929C1385.08 84.7418 1385.68 80.5302 1385.68 77.4583H1399.35C1399.35 79.4402 1399.05 82.0662 1398.46 85.3363C1403.41 78.697 1410.8 75.3773 1420.61 75.3773C1426.95 75.3773 1432.05 77.3592 1435.92 81.323C1439.88 85.1877 1441.86 90.3406 1441.86 96.7818C1441.86 98.6646 1441.61 100.944 1441.12 103.619L1431.46 148.955Z" fill="#0A111A"/>
</svg>
