<svg width="16" height="14" viewBox="0 0 16 14" fill="none" xmlns="http://www.w3.org/2000/svg">
<path d="M15.3525 7.94531C15.3525 6.71193 15.0484 5.49758 14.4669 4.40984C13.8855 3.32209 13.0448 2.39452 12.0193 1.70929C10.9938 1.02406 9.81511 0.60232 8.58767 0.481427C7.36022 0.360534 6.12191 0.544221 4.98241 1.01622C3.84292 1.48821 2.83741 2.23395 2.05496 3.18736C1.27251 4.14078 0.737271 5.27245 0.49665 6.48213C0.256029 7.69182 0.317454 8.94217 0.675486 10.1224C1.03352 11.3027 1.6771 12.3765 2.54924 13.2486L4.01793 11.7799C3.38733 11.1493 2.92197 10.3729 2.6631 9.51951C2.40422 8.6661 2.3598 7.76202 2.53379 6.88735C2.70777 6.01267 3.09478 5.19441 3.66054 4.50503C4.2263 3.81565 4.95334 3.27644 5.77726 2.93516C6.60119 2.59388 7.49657 2.46106 8.38408 2.54847C9.2716 2.63588 10.1239 2.94083 10.8654 3.43629C11.6069 3.93175 12.2148 4.60244 12.6352 5.38895C13.0556 6.17546 13.2755 7.0535 13.2755 7.94531H15.3525Z" fill="url(#paint0_linear_2629_1737)"/>
<defs>
<linearGradient id="paint0_linear_2629_1737" x1="1.61306" y1="9.33839" x2="15.3541" y2="9.32264" gradientUnits="userSpaceOnUse">
<stop stop-color="#42E8E0"/>
<stop offset="1" stop-color="#0066FF"/>
</linearGradient>
</defs>
</svg>
