<svg width="18" height="17" viewBox="0 0 18 17" fill="none" xmlns="http://www.w3.org/2000/svg">
<g clip-path="url(#clip0_3457_1815)">
<path d="M4.96924 7.42831C4.96924 5.53183 4.96924 4.58359 5.5584 3.99443C6.14756 3.40527 7.0958 3.40527 8.99228 3.40527H11.0038C12.9003 3.40527 13.8485 3.40527 14.4377 3.99443C15.0268 4.58359 15.0268 5.53183 15.0268 7.42831V10.7808C15.0268 12.6773 15.0268 13.6256 14.4377 14.2147C13.8485 14.8039 12.9003 14.8039 11.0038 14.8039H8.99228C7.0958 14.8039 6.14756 14.8039 5.5584 14.2147C4.96924 13.6256 4.96924 12.6773 4.96924 10.7808V7.42831Z" stroke="#6A7FC5" stroke-width="1.00576"/>
<path opacity="0.5" d="M4.96928 12.7922C3.85835 12.7922 2.95776 11.8916 2.95776 10.7807V6.75761C2.95776 4.22897 2.95776 2.96465 3.74331 2.1791C4.52886 1.39355 5.79318 1.39355 8.32182 1.39355H11.0038C12.1148 1.39355 13.0154 2.29414 13.0154 3.40508" stroke="#6A7FC5" stroke-width="1.00576"/>
</g>
<defs>
<clipPath id="clip0_3457_1815">
<rect width="16.0922" height="16.0922" fill="white" transform="translate(0.946289 0.0527344)"/>
</clipPath>
</defs>
</svg>
