<svg width="21" height="22" viewBox="0 0 21 22" fill="none" xmlns="http://www.w3.org/2000/svg">
<g clip-path="url(#clip0_2214_6493)">
<path d="M19.2368 4.28637L16.6653 2.35817C16.5809 2.29313 16.4845 2.2455 16.3816 2.21804C16.2787 2.19059 16.1714 2.18385 16.0659 2.19823C15.9604 2.21261 15.8587 2.24782 15.7669 2.30181C15.6751 2.3558 15.595 2.42749 15.5311 2.51272C15.4673 2.59795 15.421 2.69502 15.395 2.79829C15.369 2.90156 15.3638 3.00897 15.3796 3.11428C15.3955 3.21959 15.4321 3.32069 15.4874 3.41173C15.5426 3.50276 15.6154 3.5819 15.7015 3.64455L16.6653 4.36635C16.7651 4.44123 16.8462 4.53837 16.902 4.65005C16.9578 4.76174 16.9868 4.88489 16.9867 5.00974V7.0191C16.9897 7.37533 17.1097 7.72071 17.3282 8.00201C17.5468 8.28331 17.8518 8.48492 18.1963 8.57576C18.4106 8.63132 18.5935 8.80586 18.5935 9.02767V17.411C18.5935 17.6241 18.5088 17.8284 18.3582 17.9791C18.2075 18.1298 18.0032 18.2144 17.7901 18.2144C17.577 18.2144 17.3727 18.1298 17.222 17.9791C17.0714 17.8284 16.9867 17.6241 16.9867 17.411V16.6077C16.9835 15.9695 16.7286 15.3584 16.2773 14.9071C15.826 14.4558 15.2149 14.2009 14.5767 14.1976H14.0751L14.1043 13.414C14.1571 11.825 14.1898 10.2983 14.1831 9.69352C14.1957 8.45678 14.033 5.12321 13.8718 4.31355C13.5901 2.86681 12.3101 1.53985 10.8929 1.22623H10.8834C9.87213 1.02013 8.84233 0.918606 7.81027 0.923248C6.77916 0.918904 5.75032 1.0203 4.73989 1.22583L4.73004 1.2282C3.31166 1.54339 2.03237 2.86918 1.75106 4.31592C1.58992 5.12872 1.4272 8.45914 1.43981 9.69549C1.42996 10.6809 1.51821 14.9884 1.61671 17.1947C1.1615 17.3154 0.758909 17.5831 0.471494 17.9562C0.184079 18.3292 0.0279402 18.7868 0.0273438 19.2577L0.0273438 19.8242C0.0281771 20.1613 0.162517 20.4843 0.400955 20.7225C0.639392 20.9607 0.962501 21.0947 1.29955 21.0953H14.3135C14.6509 21.0949 14.9743 20.9606 15.2129 20.7221C15.4515 20.4835 15.5857 20.1601 15.5861 19.8227V19.2577C15.5853 18.7865 15.4288 18.3288 15.141 17.9558C14.8532 17.5827 14.4503 17.3152 13.9948 17.1947C14.0019 16.9103 14.009 16.5766 14.016 16.2342C14.0192 16.0908 14.0223 15.9458 14.0255 15.8051H14.5771C14.683 15.8035 14.7882 15.8232 14.8864 15.863C14.9846 15.9028 15.0738 15.962 15.1487 16.0369C15.2236 16.1118 15.2827 16.201 15.3225 16.2992C15.3623 16.3974 15.382 16.5025 15.3804 16.6085V17.4118C15.3804 18.051 15.6344 18.664 16.0863 19.116C16.5383 19.568 17.1513 19.8219 17.7905 19.8219C18.4297 19.8219 19.0427 19.568 19.4947 19.116C19.9466 18.664 20.2005 18.051 20.2005 17.4118V6.21457C20.2004 5.84046 20.1132 5.47151 19.946 5.13686C19.7787 4.80222 19.536 4.51105 19.2368 4.28637ZM3.21868 4.60471V4.60038C3.38652 3.7336 4.20642 2.87745 5.0472 2.68873C5.95643 2.50369 6.88243 2.41364 7.81027 2.42003C8.73824 2.4155 9.66423 2.50606 10.5737 2.6903C11.4137 2.87745 12.2348 3.73399 12.4026 4.60038V4.60471C12.5228 5.20476 12.6997 8.38704 12.6855 9.68722V9.70376C12.6918 10.2743 12.6587 11.8144 12.6067 13.3636L12.5563 14.7764C12.5445 15.0613 12.5327 15.6152 12.5201 16.2019C12.5138 16.5108 12.5067 16.8394 12.4996 17.1242H3.11152C3.01065 14.8785 2.92792 10.5552 2.93737 9.70179V9.68525C2.92319 8.38625 3.10048 5.20476 3.21868 4.60471ZM14.0889 19.2577V19.5981H1.52452V19.2561C1.52472 19.0874 1.59183 18.9257 1.71111 18.8064C1.8304 18.6871 1.99212 18.62 2.16081 18.6198H13.4526C13.5363 18.6199 13.6191 18.6365 13.6964 18.6686C13.7736 18.7007 13.8438 18.7477 13.9029 18.807C13.962 18.8662 14.0088 18.9365 14.0407 19.0138C14.0727 19.0912 14.089 19.174 14.0889 19.2577Z" fill="#3CC9CD"/>
<path d="M7.94747 4.82569C8.70314 4.82569 9.60657 4.89267 9.82405 4.9364H9.83193C9.92689 4.95689 10.0947 5.11094 10.1243 5.20392L10.1302 5.23268C10.198 5.55694 10.2208 5.66608 10.222 6.23618C10.2232 6.80629 10.198 6.91582 10.1302 7.24047L10.1243 7.26884C10.0947 7.36182 9.92728 7.51587 9.83233 7.53636H9.82405C9.60657 7.5797 8.70314 7.64668 7.94707 7.64668H7.82888H7.79578H7.67758C6.9219 7.64668 6.01769 7.5797 5.8006 7.53596H5.79272C5.69777 7.51508 5.52993 7.36103 5.49999 7.26805L5.49408 7.23929C5.4267 6.91464 5.40385 6.8059 5.40267 6.23461C5.40149 5.66332 5.4267 5.55536 5.49447 5.23111L5.49999 5.20314C5.52993 5.11015 5.69698 4.9561 5.79233 4.93561H5.8006C6.01769 4.89227 6.92151 4.8253 7.67758 4.8253H7.79578H7.82927H7.94747M7.94747 3.32812H7.81272H7.67837C6.92978 3.32812 5.89319 3.39077 5.50787 3.4676C4.83808 3.59801 4.1876 4.21146 4.03906 4.88085C3.95475 5.28745 3.90786 5.48248 3.90629 6.23776C3.90471 6.99304 3.95475 7.18767 4.03906 7.59427C4.1876 8.26406 4.8365 8.87711 5.50787 9.00753C5.89358 9.08435 6.9286 9.147 7.67837 9.147H7.81272H7.94707C8.69566 9.147 9.73186 9.08435 10.1176 9.00753C10.7874 8.87711 11.4378 8.26367 11.586 7.59427C11.6707 7.18767 11.7176 6.99265 11.7192 6.23776C11.7207 5.48287 11.6707 5.28745 11.586 4.88085C11.4378 4.21106 10.7889 3.59801 10.1176 3.4676C9.73186 3.39116 8.69605 3.32852 7.94747 3.32852V3.32812Z" fill="#3CC9CD"/>
<path d="M7.81252 11.4956C7.79481 11.4955 7.77728 11.499 7.76091 11.5057C7.74455 11.5125 7.72969 11.5224 7.71717 11.535C7.33977 11.9145 7.00305 12.3324 6.71249 12.782C6.59655 12.9571 6.49421 13.1408 6.40636 13.3316V13.3367C6.34586 13.4946 6.31604 13.6625 6.3185 13.8315C6.32323 14.2173 6.49422 14.5884 6.78262 14.8831C7.07103 15.1778 7.43074 15.3468 7.81252 15.3468H7.82473C8.60129 15.3342 9.29117 14.6093 9.31048 13.8359C9.3133 13.6642 9.28279 13.4936 9.22065 13.3335V13.3308C9.21671 13.306 8.9023 12.6007 7.92362 11.5523C7.92008 11.5476 7.91653 11.5432 7.91259 11.5389C7.90006 11.525 7.88476 11.5138 7.86766 11.5061C7.85056 11.4985 7.83205 11.4945 7.81331 11.4944L7.81252 11.4956Z" fill="#3CC9CD"/>
</g>
<defs>
<clipPath id="clip0_2214_6493">
<rect width="20.1724" height="20.1724" fill="white" transform="translate(0.0273438 0.922852)"/>
</clipPath>
</defs>
</svg>
