<svg width="39" height="39" viewBox="0 0 39 39" fill="none" xmlns="http://www.w3.org/2000/svg">
<rect x="0.5" y="0.5" width="38" height="38" rx="5.59375" stroke="#1A2739"/>
<path d="M34.125 19.5C34.125 19.8232 33.9966 20.1332 33.768 20.3618C33.5395 20.5903 33.2295 20.7188 32.9062 20.7188H6.09375C5.77052 20.7188 5.46052 20.5903 5.23196 20.3618C5.0034 20.1332 4.875 19.8232 4.875 19.5C4.875 19.1768 5.0034 18.8668 5.23196 18.6382C5.46052 18.4097 5.77052 18.2812 6.09375 18.2812H32.9062C33.2295 18.2812 33.5395 18.4097 33.768 18.6382C33.9966 18.8668 34.125 19.1768 34.125 19.5ZM6.09375 10.9688H23.1562C23.4795 10.9688 23.7895 10.8403 24.018 10.6118C24.2466 10.3832 24.375 10.0732 24.375 9.75C24.375 9.42677 24.2466 9.11677 24.018 8.88821C23.7895 8.65965 23.4795 8.53125 23.1562 8.53125H6.09375C5.77052 8.53125 5.46052 8.65965 5.23196 8.88821C5.0034 9.11677 4.875 9.42677 4.875 9.75C4.875 10.0732 5.0034 10.3832 5.23196 10.6118C5.46052 10.8403 5.77052 10.9688 6.09375 10.9688ZM28.0312 28.0312H6.09375C5.77052 28.0312 5.46052 28.1597 5.23196 28.3882C5.0034 28.6168 4.875 28.9268 4.875 29.25C4.875 29.5732 5.0034 29.8832 5.23196 30.1118C5.46052 30.3403 5.77052 30.4688 6.09375 30.4688H28.0312C28.3545 30.4688 28.6645 30.3403 28.893 30.1118C29.1216 29.8832 29.25 29.5732 29.25 29.25C29.25 28.9268 29.1216 28.6168 28.893 28.3882C28.6645 28.1597 28.3545 28.0312 28.0312 28.0312Z" fill="white"/>
</svg>
