<svg width="150" height="150" viewBox="0 0 150 150" fill="none" xmlns="http://www.w3.org/2000/svg">
<path opacity="0.4" d="M127.72 63.4523H109.724C94.9661 63.4523 82.9482 51.4344 82.9482 36.6767V18.681C82.9482 15.2562 80.1461 12.4541 76.7213 12.4541H50.3193C31.1405 12.4541 15.6356 24.9079 15.6356 47.1379V102.308C15.6356 124.538 31.1405 136.992 50.3193 136.992H99.2627C118.441 136.992 133.946 124.538 133.946 102.308V69.6792C133.946 66.2544 131.144 63.4523 127.72 63.4523Z" fill="#121E2D"/>
<path d="M98.4512 13.7641C95.8982 11.2111 91.4771 12.9546 91.4771 16.504V38.2358C91.4771 47.3271 99.1985 54.8616 108.601 54.8616C114.517 54.9239 122.736 54.9239 129.772 54.9239C133.322 54.9239 135.19 50.7518 132.699 48.2611C123.732 39.2321 107.667 22.9799 98.4512 13.7641Z" fill="#121E2D"/>
<path d="M84.1313 85.6196H46.77C44.217 85.6196 42.0999 83.5025 42.0999 80.9495C42.0999 78.3964 44.217 76.2793 46.77 76.2793H84.1313C86.6844 76.2793 88.8015 78.3964 88.8015 80.9495C88.8015 83.5025 86.6844 85.6196 84.1313 85.6196Z" fill="#121E2D"/>
<path d="M71.6776 110.527H46.77C44.217 110.527 42.0999 108.41 42.0999 105.857C42.0999 103.304 44.217 101.187 46.77 101.187H71.6776C74.2306 101.187 76.3477 103.304 76.3477 105.857C76.3477 108.41 74.2306 110.527 71.6776 110.527Z" fill="#121E2D"/>
</svg>
