<svg width="43" height="44" viewBox="0 0 43 44" fill="none" xmlns="http://www.w3.org/2000/svg">
<path d="M36.9477 5.04395L23.5552 14.9908L26.0318 9.12228L36.9477 5.04395Z" fill="#E2761B" stroke="#E2761B" stroke-width="0.134598" stroke-linecap="round" stroke-linejoin="round"/>
<path d="M6.03047 5.04395L19.3153 15.085L16.9599 9.12228L6.03047 5.04395ZM32.1291 28.1007L28.5622 33.5653L36.194 35.6651L38.3879 28.2218L32.1291 28.1007ZM4.61719 28.2218L6.79768 35.6651L14.4294 33.5653L10.8626 28.1007L4.61719 28.2218Z" fill="#E4761B" stroke="#E4761B" stroke-width="0.134598" stroke-linecap="round" stroke-linejoin="round"/>
<path d="M13.9985 18.8666L11.8718 22.0835L19.4497 22.42L19.1805 14.2768L13.9985 18.8666ZM28.9793 18.8666L23.7299 14.1826L23.555 22.42L31.1194 22.0835L28.9793 18.8666ZM14.4292 33.5648L18.9786 31.3439L15.0483 28.2751L14.4292 33.5648ZM23.9991 31.3439L28.562 33.5648L27.9294 28.2751L23.9991 31.3439Z" fill="#E4761B" stroke="#E4761B" stroke-width="0.134598" stroke-linecap="round" stroke-linejoin="round"/>
<path d="M28.562 33.5656L23.9991 31.3447L24.3626 34.3194L24.3222 35.5711L28.562 33.5656ZM14.4292 33.5656L18.669 35.5711L18.6421 34.3194L18.9786 31.3447L14.4292 33.5656Z" fill="#D7C1B3" stroke="#D7C1B3" stroke-width="0.134598" stroke-linecap="round" stroke-linejoin="round"/>
<path d="M18.7366 26.3098L14.9409 25.1926L17.6194 23.9678L18.7366 26.3098ZM24.2417 26.3098L25.3588 23.9678L28.0508 25.1926L24.2417 26.3098Z" fill="#233447" stroke="#233447" stroke-width="0.134598" stroke-linecap="round" stroke-linejoin="round"/>
<path d="M14.4294 33.5652L15.0755 28.1005L10.8625 28.2217L14.4294 33.5652ZM27.9162 28.1005L28.5622 33.5652L32.1291 28.2217L27.9162 28.1005ZM31.1196 22.084L23.5552 22.4205L24.2551 26.3104L25.3723 23.9684L28.0642 25.1932L31.1196 22.084ZM14.9409 25.1932L17.6328 23.9684L18.7366 26.3104L19.4499 22.4205L11.872 22.084L14.9409 25.1932Z" fill="#CD6116" stroke="#CD6116" stroke-width="0.134598" stroke-linecap="round" stroke-linejoin="round"/>
<path d="M11.8718 22.084L15.0483 28.2755L14.9407 25.1932L11.8718 22.084ZM28.064 25.1932L27.9294 28.2755L31.1194 22.084L28.064 25.1932ZM19.4497 22.4205L18.7363 26.3104L19.6247 30.9002L19.8266 24.8567L19.4497 22.4205ZM23.555 22.4205L23.1916 24.8433L23.3531 30.9002L24.2549 26.3104L23.555 22.4205Z" fill="#E4751F" stroke="#E4751F" stroke-width="0.134598" stroke-linecap="round" stroke-linejoin="round"/>
<path d="M24.2551 26.3105L23.3533 30.9003L23.9994 31.3445L27.9297 28.2757L28.0643 25.1934L24.2551 26.3105ZM14.9409 25.1934L15.0486 28.2757L18.9789 31.3445L19.6249 30.9003L18.7366 26.3105L14.9409 25.1934Z" fill="#F6851B" stroke="#F6851B" stroke-width="0.134598" stroke-linecap="round" stroke-linejoin="round"/>
<path d="M24.3222 35.5709L24.3626 34.3192L24.0261 34.0231H18.9517L18.6421 34.3192L18.669 35.5709L14.4292 33.5654L15.9098 34.7768L18.9113 36.8631H24.0664L27.0815 34.7768L28.562 33.5654L24.3222 35.5709Z" fill="#C0AD9E" stroke="#C0AD9E" stroke-width="0.134598" stroke-linecap="round" stroke-linejoin="round"/>
<path d="M23.9993 31.3446L23.3533 30.9004H19.6249L18.9788 31.3446L18.6423 34.3192L18.9519 34.0231H24.0263L24.3628 34.3192L23.9993 31.3446Z" fill="#161616" stroke="#161616" stroke-width="0.134598" stroke-linecap="round" stroke-linejoin="round"/>
<path d="M37.513 15.6368L38.6571 10.1452L36.9477 5.04395L23.9993 14.6543L28.9794 18.8672L36.0189 20.9266L37.5803 19.1095L36.9073 18.6249L37.9841 17.6424L37.1496 16.9963L38.2264 16.1752L37.513 15.6368ZM4.33447 10.1452L5.47856 15.6368L4.75173 16.1752L5.82852 16.9963L5.00746 17.6424L6.08425 18.6249L5.41126 19.1095L6.95914 20.9266L13.9986 18.8672L18.9788 14.6543L6.03041 5.04395L4.33447 10.1452Z" fill="#763D16" stroke="#763D16" stroke-width="0.134598" stroke-linecap="round" stroke-linejoin="round"/>
<path d="M36.019 20.9263L28.9795 18.867L31.1196 22.0839L27.9296 28.2754L32.1291 28.2216H38.3879L36.019 20.9263ZM13.9987 18.867L6.9592 20.9263L4.61719 28.2216H10.8626L15.0486 28.2754L11.872 22.0839L13.9987 18.867ZM23.5552 22.4204L23.9994 14.6541L26.0453 9.12207H16.9599L18.9788 14.6541L19.4499 22.4204L19.6115 24.8701L19.6249 30.9001H23.3533L23.3802 24.8701L23.5552 22.4204Z" fill="#F6851B" stroke="#F6851B" stroke-width="0.134598" stroke-linecap="round" stroke-linejoin="round"/>
</svg>
