<svg width="14" height="15" viewBox="0 0 14 15" fill="none" xmlns="http://www.w3.org/2000/svg">
<path d="M12.8661 0.876953H6.77283C6.2556 0.876953 5.82668 1.30588 5.82668 1.82311C5.82668 2.34034 6.2556 2.76926 6.77283 2.76926H10.5827L0.843598 12.5083C0.477752 12.8742 0.477752 13.4797 0.843598 13.8456C1.03283 14.0348 1.27252 14.1231 1.51221 14.1231C1.75191 14.1231 1.9916 14.0348 2.18083 13.8456L11.9199 4.10649V7.91634C11.9199 8.43357 12.3488 8.86249 12.8661 8.86249C13.3833 8.86249 13.8122 8.43357 13.8122 7.91634V1.82311C13.8122 1.30588 13.3833 0.876953 12.8661 0.876953Z" fill="#6A7FC5"/>
</svg>
