<svg width="16" height="18" viewBox="0 0 16 18" fill="none" xmlns="http://www.w3.org/2000/svg">
<path d="M11.7939 2.73735H3.87471L4.45555 2.15647C4.86638 1.74563 4.86638 1.06564 4.45555 0.654805C4.04472 0.243971 3.36472 0.243971 2.95389 0.654805L0.559719 3.04897C0.460552 3.14814 0.389714 3.26146 0.333047 3.38896C0.219714 3.64396 0.219714 3.94147 0.333047 4.19647C0.389714 4.32397 0.460552 4.43729 0.559719 4.53646L2.95389 6.93063C3.16639 7.14313 3.43555 7.24234 3.70472 7.24234C3.97389 7.24234 4.24305 7.14313 4.45555 6.93063C4.86638 6.51979 4.86638 5.8398 4.45555 5.42896L3.87471 4.84817H11.7939C12.4597 4.84817 12.9981 5.38647 12.9981 6.0523V8.55983C12.9981 9.14066 13.4797 9.62233 14.0606 9.62233C14.6414 9.62233 15.1231 9.14066 15.1231 8.55983V6.0523C15.1231 4.23897 13.6214 2.73735 11.7939 2.73735Z" fill="#3CCACE"/>
<path d="M15.038 13.7589C14.9814 13.6314 14.9105 13.518 14.8114 13.4189L12.4172 11.0247C12.0064 10.6139 11.3264 10.6139 10.9155 11.0247C10.5047 11.4355 10.5047 12.1155 10.9155 12.5264L11.4964 13.1072H3.57722C2.91139 13.1072 2.37305 12.5689 2.37305 11.903V9.39551C2.37305 8.81467 1.89138 8.33301 1.31055 8.33301C0.729714 8.33301 0.248047 8.81467 0.248047 9.39551V11.903C0.248047 13.7447 1.74972 15.2322 3.57722 15.2322H11.4964L10.9155 15.813C10.5047 16.2239 10.5047 16.9039 10.9155 17.3147C11.128 17.5272 11.3972 17.6263 11.6664 17.6263C11.9355 17.6263 12.2047 17.5272 12.4172 17.3147L14.8114 14.9205C14.9105 14.8214 14.9814 14.7081 15.038 14.5806C15.1514 14.3114 15.1514 14.0139 15.038 13.7589Z" fill="#3CCACE"/>
</svg>
