<svg width="17" height="17" viewBox="0 0 17 17" fill="none" xmlns="http://www.w3.org/2000/svg">
<g clip-path="url(#clip0_3457_1811)">
<path d="M6.073 10.11L10.096 6.08691M10.096 6.08691H7.07876M10.096 6.08691V9.10419" stroke="#6A7FC5" stroke-width="1.00576" stroke-linecap="round" stroke-linejoin="round"/>
<path opacity="0.5" d="M1.37939 8.09862C1.37939 4.93782 1.37939 3.35742 2.36133 2.37549C3.34326 1.39355 4.92366 1.39355 8.08446 1.39355C11.2453 1.39355 12.8257 1.39355 13.8076 2.37549C14.7895 3.35742 14.7895 4.93782 14.7895 8.09862C14.7895 11.2594 14.7895 12.8398 13.8076 13.8218C12.8257 14.8037 11.2453 14.8037 8.08446 14.8037C4.92366 14.8037 3.34326 14.8037 2.36133 13.8218C1.37939 12.8398 1.37939 11.2594 1.37939 8.09862Z" stroke="#6A7FC5" stroke-width="1.00576"/>
</g>
<defs>
<clipPath id="clip0_3457_1811">
<rect width="16.0922" height="16.0922" fill="white" transform="translate(0.0385742 0.0527344)"/>
</clipPath>
</defs>
</svg>
