<svg width="25" height="24" viewBox="0 0 25 24" fill="none" xmlns="http://www.w3.org/2000/svg">
<path d="M2.40625 11.9951C2.40625 7.28107 2.40625 4.92405 3.87072 3.45958C5.33518 1.99512 7.6922 1.99512 12.4062 1.99512C17.1203 1.99512 19.4773 1.99512 20.9418 3.45958C22.4062 4.92405 22.4062 7.28107 22.4062 11.9951C22.4062 16.7092 22.4062 19.0662 20.9418 20.5307C19.4773 21.9951 17.1203 21.9951 12.4062 21.9951C7.6922 21.9951 5.33518 21.9951 3.87072 20.5307C2.40625 19.0662 2.40625 16.7092 2.40625 11.9951Z" stroke="#3CCACE" stroke-width="1.5"/>
<path opacity="0.5" d="M21.9062 7.99512H2.90625M7.40625 7.99512L10.9062 2.49512M13.9062 7.99512L17.4062 2.49512" stroke="#3CCACE" stroke-width="1.5" stroke-linecap="round"/>
<path opacity="0.5" d="M15.4062 14.4951C15.4062 13.8618 14.7442 13.4346 13.4202 12.5803C12.0781 11.7144 11.4071 11.2814 10.9067 11.5993C10.4062 11.9172 10.4062 12.7765 10.4062 14.4951C10.4062 16.2137 10.4062 17.073 10.9067 17.3909C11.4071 17.7088 12.0781 17.2759 13.4202 16.4099C14.7442 15.5556 15.4062 15.1285 15.4062 14.4951Z" stroke="#3CCACE" stroke-width="1.5" stroke-linecap="round"/>
</svg>
