<svg width="39" height="25" viewBox="0 0 39 25" fill="none" xmlns="http://www.w3.org/2000/svg">
<g clip-path="url(#clip0_2883_676)">
<path d="M8.58989 5.61274C14.813 -0.455551 24.9023 -0.455551 31.1252 5.61274L31.8741 6.34313C31.948 6.41433 32.0067 6.49967 32.0468 6.59407C32.0869 6.68847 32.1076 6.78999 32.1076 6.89257C32.1076 6.99514 32.0869 7.09666 32.0468 7.19106C32.0067 7.28546 31.948 7.37081 31.8741 7.442L29.3121 9.94023C29.2365 10.0132 29.1355 10.054 29.0305 10.054C28.9254 10.054 28.8244 10.0132 28.7488 9.94023L27.7181 8.93517C23.3769 4.70189 16.3384 4.70189 11.997 8.93517L10.8933 10.0116C10.8178 10.0846 10.7167 10.1254 10.6116 10.1254C10.5065 10.1254 10.4055 10.0846 10.3299 10.0116L7.76807 7.51335C7.6942 7.44215 7.63544 7.3568 7.5953 7.26238C7.55517 7.16796 7.53448 7.06641 7.53448 6.96382C7.53448 6.86122 7.55517 6.75968 7.5953 6.66526C7.63544 6.57084 7.6942 6.48548 7.76807 6.41429L8.58989 5.61274ZM36.4236 10.7795L38.7038 13.0031C38.7776 13.0743 38.8363 13.1596 38.8764 13.254C38.9165 13.3484 38.9372 13.4499 38.9372 13.5524C38.9372 13.655 38.9165 13.7565 38.8764 13.8509C38.8363 13.9452 38.7776 14.0306 38.7038 14.1018L28.4223 24.1279C28.1113 24.4314 27.6068 24.4314 27.2956 24.1279L19.9985 17.0122C19.9607 16.9757 19.9102 16.9553 19.8577 16.9553C19.8051 16.9553 19.7546 16.9757 19.7169 17.0122L12.4199 24.1279C12.1087 24.4314 11.6043 24.4314 11.293 24.1279L1.01132 14.1018C0.93748 14.0306 0.878744 13.9452 0.838626 13.8508C0.798509 13.7564 0.777832 13.6549 0.777832 13.5523C0.777832 13.4498 0.798509 13.3482 0.838626 13.2538C0.878744 13.1594 0.93748 13.0741 1.01132 13.0029L3.29153 10.7795C3.60277 10.476 4.10718 10.476 4.41842 10.7795L11.7156 17.8954C11.7533 17.9319 11.8038 17.9523 11.8564 17.9523C11.9089 17.9523 11.9594 17.9319 11.9972 17.8954L19.2941 10.7795C19.6052 10.476 20.1096 10.476 20.421 10.7795L27.7181 17.8954C27.7559 17.9319 27.8064 17.9523 27.859 17.9523C27.9115 17.9523 27.962 17.9319 27.9998 17.8954L35.2969 10.7795C35.6079 10.4762 36.1126 10.4762 36.4236 10.7795Z" fill="white"/>
</g>
<defs>
<clipPath id="clip0_2883_676">
<rect width="38.1591" height="23.6507" fill="white" transform="translate(0.778076 0.881836)"/>
</clipPath>
</defs>
</svg>
